<?xml version="1.0" encoding="UTF-8"?>
<svg xmlns="http://www.w3.org/2000/svg" viewBox="0 0 320 80" width="320" height="80" role="img" aria-label="STEER">
  <g transform="translate(0,80) scale(0.1,-0.1)" fill-rule="evenodd">
    <path fill="#f8f8f8" d="M144 756 c-123 -57 -160 -212 -74 -310 45 -51 90 -67 212 -77 156
-13 201 -43 201 -135 0 -35 -6 -51 -28 -74 -41 -43 -79 -50 -267 -50 l-168 0
0 -45 0 -45 186 0 c221 0 251 7 315 71 37 36 49 57 58 97 33 157 -77 272 -263
272 -157 1 -232 71 -181 169 26 51 65 61 244 61 l161 0 0 45 0 45 -172 0
c-161 0 -177 -2 -224 -24z M650 735 l0 -45 120 0 120 0 0 -335 0 -335 50 0 50
0 0 335 0 335 120 0 120 0 0 45 0 45 -290 0 -290 0 0 -45z M1350 735 l0 -45
265 0 265 0 0 45 0 45 -265 0 -265 0 0 -45z M2010 735 l0 -45 265 0 265 0 0
45 0 45 -265 0 -265 0 0 -45z M2660 735 l0 -45 153 0 c173 0 203 -10 234 -75
15 -32 16 -40 3 -77 -27 -74 -48 -83 -231 -86 l-159 -4 0 -214 0 -214 50 0 50
0 0 170 0 170 71 0 70 0 82 -170 81 -170 58 0 58 0 -85 170 c-47 93 -85 171
-85 173 0 2 22 18 48 34 132 82 122 287 -17 360 -41 21 -56 23 -213 23 l-168
0 0 -45z M1350 405 l0 -45 255 0 255 0 0 45 0 45 -255 0 -255 0 0 -45z M2010
235 l0 -215 265 0 265 0 0 45 0 45 -215 0 -215 0 0 125 0 125 205 0 205 0 0
45 0 45 -255 0 -255 0 0 -215z M1350 65 l0 -45 265 0 265 0 0 45 0 45 -265 0
-265 0 0 -45z"/>
    <path fill="#e87028" d="M1520 626 c0 -12 102 -57 162 -71 62 -14 370 -55 415 -55 30 0 31 30
1 64 -22 25 -29 26 -158 31 -142 6 -310 20 -379 31 -23 4 -41 4 -41 0z M2715
619 c-22 -4 -137 -13 -255 -19 -233 -12 -240 -14 -254 -72 -8 -35 -8 -35 213
-7 193 24 276 41 331 69 72 37 58 49 -35 29z"/>
  </g>
</svg>
